<svg xmlns="http://www.w3.org/2000/svg" width="36.183" height="36.065" viewBox="0 0 36.183 36.065">
  <g id="agriculture" transform="translate(-6 -5.935)">
    <path id="Path_29" data-name="Path 29" d="M41.941,7.457,40.953,7.3l-.259-.966,1.488-.4ZM28.72,21.287l-.852.524v0l0,0-.01-.016-.034-.057c-.029-.049-.07-.118-.121-.207-.1-.177-.243-.431-.4-.743a20.251,20.251,0,0,1-1.074-2.435,10.72,10.72,0,0,1-.673-3.071,4.258,4.258,0,0,1,.925-3.059,10.708,10.708,0,0,1,3.392-2.164c1.432-.658,3.115-1.29,4.711-1.838S37.7,7.2,38.83,6.864c.564-.166,1.029-.3,1.353-.389l.376-.1.1-.027.036-.01.259.966.988.157-.006.037-.017.106c-.015.092-.037.228-.066.4-.058.345-.142.839-.248,1.438-.213,1.2-.514,2.817-.871,4.5s-.77,3.442-1.209,4.917a20.649,20.649,0,0,1-.687,1.991,5.456,5.456,0,0,1-.826,1.459,3.913,3.913,0,0,1-2.75,1.118,13.356,13.356,0,0,1-3.093-.229c-1-.176-1.943-.416-2.628-.61-.344-.1-.627-.184-.825-.247l-.231-.075-.063-.021-.017-.006,0,0h0S28.4,22.233,28.72,21.287Zm0,0-.852.524.188.306.34.117Zm.671-.833c.176.055.411.126.692.206.645.183,1.515.4,2.43.565a11.412,11.412,0,0,0,2.614.2,2.045,2.045,0,0,0,1.378-.439,3.705,3.705,0,0,0,.485-.91,18.738,18.738,0,0,0,.617-1.793c.417-1.4.818-3.1,1.169-4.761s.648-3.252.859-4.436q.037-.207.07-.4l-.309.091c-1.109.327-2.607.787-4.17,1.323S32.046,11.25,30.7,11.869a9.143,9.143,0,0,0-2.722,1.664,2.293,2.293,0,0,0-.433,1.657A8.762,8.762,0,0,0,28.1,17.67a18.252,18.252,0,0,0,.967,2.19C29.2,20.1,29.306,20.3,29.392,20.454ZM10.263,9.974,10,10.94l-.988.157L8.774,9.575Zm9.681,12.332.852.524v0l0,0,.008-.014.028-.047c.024-.04.058-.1.1-.171.084-.146.2-.355.332-.611a16.628,16.628,0,0,0,.883-2,8.9,8.9,0,0,0,.558-2.551,3.646,3.646,0,0,0-.8-2.617,8.863,8.863,0,0,0-2.819-1.806c-1.172-.539-2.547-1.055-3.845-1.5s-2.547-.829-3.464-1.1c-.459-.135-.838-.243-1.1-.317L10.374,10l-.082-.022-.029-.008L10,10.94l-.988.157,0,.031.014.086c.012.075.03.186.054.326.047.281.115.683.2,1.171.173.974.419,2.292.709,3.664s.628,2.8.986,4.01a16.928,16.928,0,0,0,.565,1.636,4.6,4.6,0,0,0,.7,1.237,3.362,3.362,0,0,0,2.363.972,11.035,11.035,0,0,0,2.559-.189c.823-.145,1.593-.341,2.154-.5.282-.08.513-.151.676-.2l.19-.061.052-.017.014,0,.006,0S20.269,23.252,19.944,22.307Zm0,0,.852.524-.188.306-.34.117Zm-.672-.834c.063-.112.138-.251.222-.412a14.648,14.648,0,0,0,.776-1.756,6.938,6.938,0,0,0,.442-1.961,1.684,1.684,0,0,0-.305-1.215,7.315,7.315,0,0,0-2.149-1.305c-1.085-.5-2.389-.99-3.659-1.426-1.249-.428-2.447-.8-3.342-1.062l0,.025c.171.961.412,2.256.7,3.6s.61,2.723.947,3.855a15.038,15.038,0,0,0,.494,1.439,2.892,2.892,0,0,0,.362.688,1.519,1.519,0,0,0,.991.293,9.1,9.1,0,0,0,2.079-.163c.735-.129,1.436-.307,1.956-.455C18.976,21.562,19.14,21.513,19.272,21.472Zm-2.19,9.534a1.417,1.417,0,0,0-.409.065c-.453.2-1.83.684-3.017,1.09-.61.208-1.2.405-1.628.55L12,32.721v5.4l.558-.021c.828-.03,1.813-.059,2.24-.042a15.736,15.736,0,0,1,4.384.889l.026.008a15.237,15.237,0,0,0,3.668.813c.4.03.788.069,1.152.1h0a7.339,7.339,0,0,0,3.023-.048c.554-.2,2.578-1.14,4.621-2.167,1.01-.508,2-1.025,2.787-1.468.394-.222.729-.42.986-.586.129-.083.231-.153.309-.21.038-.029.068-.052.089-.069l.028-.025a.756.756,0,0,0,.034-.784.731.731,0,0,0-.377-.34,1.939,1.939,0,0,0-1.081-.065,21.215,21.215,0,0,0-4.125,1.377l-.021.008c-.714.29-1.429.582-2.064.793a5.305,5.305,0,0,1-1.877.349c-.811-.049-2.232-.26-3.4-.449-.6-.1-1.144-.19-1.543-.259l-.475-.083-.13-.023-.046-.008.189-1.984,4.572.055h.009a1.011,1.011,0,0,0,.158-.029,2.381,2.381,0,0,0,.77-.38,1.668,1.668,0,0,0,.372-.4,2.092,2.092,0,0,0,.136-.225,10.9,10.9,0,0,1-1.656-.235c-.281-.061-.517-.122-.685-.168l-.2-.057-.034-.01L18.8,31.14l-.053-.009-.209-.032c-.18-.026-.424-.057-.689-.077A5.965,5.965,0,0,0,17.082,31.007ZM19,30.16l.182-.983.018,0,5.717,1.272.042.013.008,0,.038.011.158.045c.139.038.339.09.577.141a8.172,8.172,0,0,0,1.656.2,1.642,1.642,0,0,1,1.5.809,1.92,1.92,0,0,1,.113,1.431,3.582,3.582,0,0,1-.407.919c.3-.12.627-.251.966-.389l.063-.025a22.558,22.558,0,0,1,4.493-1.473,3.159,3.159,0,0,1,3.558,1.46,2.731,2.731,0,0,1-.385,3.1,4.7,4.7,0,0,1-.77.584c-.3.2-.676.415-1.088.647-.825.464-1.846,1-2.869,1.512-2.023,1.018-4.153,2.012-4.836,2.26a8.707,8.707,0,0,1-3.778.171l-.127-.013c-.368-.037-.734-.073-1.108-.1a17.07,17.07,0,0,1-4.095-.892l-.024-.008a13.885,13.885,0,0,0-3.889-.806c-.332-.013-1.226.011-2.088.043-.42.015-.816.031-1.108.044l-.348.015-.128.006L10,40.214V31.278l.877-.291.515-.172c.43-.144,1.011-.34,1.616-.546,1.244-.425,2.5-.865,2.84-1.02a3.208,3.208,0,0,1,1.118-.239,7.931,7.931,0,0,1,1.038.018c.321.025.612.061.822.092.105.015.192.029.253.039l.072.012.021,0h.01S19.183,29.177,19,30.16Z" fill="#fff" fill-rule="evenodd"/>
    <path id="Path_30" data-name="Path 30" d="M35.151,13.241a1,1,0,0,1,.109,1.41c-2.98,3.477-6.691,8.574-8.329,12.717a1,1,0,1,1-1.86-.736c1.763-4.459,5.651-9.76,8.671-13.283A1,1,0,0,1,35.151,13.241Z" fill="#fff" fill-rule="evenodd"/>
    <path id="Path_31" data-name="Path 31" d="M15.381,16.448a1,1,0,0,0-.166,1.4,41.207,41.207,0,0,1,5.852,9.507,1,1,0,0,0,1.867-.718,43.09,43.09,0,0,0-6.148-10.026A1,1,0,0,0,15.381,16.448Z" fill="#fff" fill-rule="evenodd"/>
    <path id="Path_32" data-name="Path 32" d="M6,29h6V42H6Z" fill="#fff"/>
  </g>
</svg>
