<svg xmlns="http://www.w3.org/2000/svg" width="89" height="89" viewBox="0 0 89 89">
  <g id="Country-Support-icon" transform="translate(-1005.759 -2865.759)">
    <g id="Ellipse_2" data-name="Ellipse 2" transform="translate(1005.759 2865.759)" fill="none" stroke="#60af6f" stroke-width="2">
      <circle cx="44.5" cy="44.5" r="44.5" stroke="none"/>
      <circle cx="44.5" cy="44.5" r="43.5" fill="none"/>
    </g>
    <g id="group" transform="translate(1031.426 2890.926)">
      <path id="Path_10" data-name="Path 10" d="M6.519,10.037A3.519,3.519,0,1,0,3,6.519,3.519,3.519,0,0,0,6.519,10.037Zm24.63,0A3.519,3.519,0,1,0,27.63,6.519,3.519,3.519,0,0,0,31.148,10.037Zm3.519,21.111a3.519,3.519,0,1,1-3.519-3.519A3.519,3.519,0,0,1,34.667,31.148ZM6.519,34.667A3.519,3.519,0,1,0,3,31.148,3.519,3.519,0,0,0,6.519,34.667Z" transform="translate(0 0)" fill="#60af6f"/>
      <path id="Path_11" data-name="Path 11" d="M10.738,7.519a5.269,5.269,0,0,0,0-3.519h8.216a4.4,4.4,0,0,1,4.4,4.4v4.4h4.4a4.4,4.4,0,0,1,4.4,4.4V25.41a5.273,5.273,0,0,0-3.519,0V17.194a.88.88,0,0,0-.88-.88h-4.4v2.639a4.4,4.4,0,0,1-4.4,4.4H16.315v4.4a.88.88,0,0,0,.88.88H25.41a5.273,5.273,0,0,0,0,3.519H17.194a4.4,4.4,0,0,1-4.4-4.4v-4.4H8.4a4.4,4.4,0,0,1-4.4-4.4V10.738a5.269,5.269,0,0,0,3.519,0v8.216a.88.88,0,0,0,.88.88h4.4V17.194a4.4,4.4,0,0,1,4.4-4.4h2.639V8.4a.88.88,0,0,0-.88-.88Zm9.1,11.435V16.315H17.194a.88.88,0,0,0-.88.88v2.639h2.639A.88.88,0,0,0,19.833,18.954Z" transform="translate(0.759 0.759)" fill="#60af6f"/>
    </g>
  </g>
</svg>
