<svg xmlns="http://www.w3.org/2000/svg" width="14.085" height="13.38" viewBox="0 0 14.085 13.38">
  <path id="donate-heart" d="M3.408,15.38h6.775a2.813,2.813,0,0,0,2.139-.984L15.915,10.2A.7.7,0,0,0,15.6,9.078l-1.386-.462a2.143,2.143,0,0,0-1.988.354L9.987,10.764l-.435-.87a2.8,2.8,0,0,0-2.52-1.556H3.408A1.41,1.41,0,0,0,2,9.747v4.225A1.41,1.41,0,0,0,3.408,15.38Zm0-5.634H7.032a1.4,1.4,0,0,1,1.26.778l.315.63H5.521v1.408H9.756a.7.7,0,0,0,.311-.077h.012c.006,0,0,0,0,0s0,0,0,0h.011s0,0,0,0h.014c.006,0,0,0,0,0h0a.645.645,0,0,0,.077-.055l2.92-2.336a.713.713,0,0,1,.662-.118l.392.131-2.911,3.4a1.429,1.429,0,0,1-1.07.484H3.408ZM11.859,2h-.012a2.639,2.639,0,0,0-1.4.5A2.651,2.651,0,0,0,9.065,2H9.041a2.113,2.113,0,0,0-1.5,3.594L9.94,8.12a.705.705,0,0,0,1.021,0l2.392-2.513A2.112,2.112,0,0,0,11.861,2h0Zm.7,2.113a.711.711,0,0,1-.219.511L10.451,6.613l-1.906-2a.7.7,0,0,1,0-1,.688.688,0,0,1,.482-.206,1.428,1.428,0,0,1,.751.342,2.274,2.274,0,0,1,.174.156l.5.5.5-.5a2.274,2.274,0,0,1,.174-.156,1.441,1.441,0,0,1,.741-.341.7.7,0,0,1,.7.7Z" transform="translate(-2 -2)" fill="#fff"/>
</svg>
