<svg xmlns="http://www.w3.org/2000/svg" width="48.993" height="46.838" viewBox="0 0 48.993 46.838">
  <g id="education_2_" data-name="education (2)" transform="translate(-0.55 -0.545)">
    <path id="Path_19" data-name="Path 19" d="M.55,17.73H38.311a5.113,5.113,0,0,1,5.113,5.092h0a5.113,5.113,0,0,1-5.113,5.113H.55" transform="translate(0 18.493)" fill="none" stroke="#fff" stroke-width="1.91"/>
    <path id="Path_20" data-name="Path 20" d="M2.45,17.73a7.424,7.424,0,0,1,2.139,5.092A7.488,7.488,0,0,1,2.45,27.935" transform="translate(2.165 18.493)" fill="none" stroke="#fff" stroke-width="1.91"/>
    <path id="Path_21" data-name="Path 21" d="M46.284,23.119H8.523A5.113,5.113,0,0,1,3.41,18.006h0A5.113,5.113,0,0,1,8.523,13H46.284" transform="translate(3.259 13.103)" fill="none" stroke="#fff" stroke-width="1.91"/>
    <path id="Path_22" data-name="Path 22" d="M22.642,23.176a7.4,7.4,0,0,1,0-10.226" transform="translate(22.836 13.046)" fill="none" stroke="#fff" stroke-width="1.91"/>
    <path id="Path_23" data-name="Path 23" d="M27.64,10.818c0,5.948-4.086,15.1-10.205,10.7C11.316,25.794,7.23,16.68,7.23,10.818S13.349,2.26,17.435,6.539C21.521,2.175,27.64,4.849,27.64,10.818Z" transform="translate(7.611 3.283)" fill="none" stroke="#fff" stroke-width="1.91"/>
    <path id="Path_24" data-name="Path 24" d="M10.09,1.5c2.139,0,4.086,2.139,4.086,6.119" transform="translate(10.87)" fill="none" stroke="#fff" stroke-width="1.91"/>
  </g>
</svg>
