<svg id="education_1_" data-name="education (1)" xmlns="http://www.w3.org/2000/svg" width="38" height="38" viewBox="0 0 38 38">
  <path id="Path_6" data-name="Path 6" d="M29.75,31.875H27.375V28.313a5.945,5.945,0,0,0-5.937-5.937H14.313a5.945,5.945,0,0,0-5.937,5.938v3.562H6V28.313A8.322,8.322,0,0,1,14.313,20h7.125a8.322,8.322,0,0,1,8.313,8.313Z" transform="translate(1.125 3.75)" fill="#fff"/>
  <path id="Path_7" data-name="Path 7" d="M5.188,6A1.188,1.188,0,0,0,4,7.188V17.875H6.375V7.188A1.188,1.188,0,0,0,5.188,6Z" transform="translate(0.75 1.125)" fill="#fff"/>
  <path id="Path_8" data-name="Path 8" d="M4,2V4.375H9.938v8.313a8.313,8.313,0,0,0,16.625,0V4.375H32.5V2Zm8.313,2.375H24.188V7.938H12.313Zm5.938,14.25a5.938,5.938,0,0,1-5.937-5.937V10.313H24.188v2.375A5.937,5.937,0,0,1,18.25,18.625Z" transform="translate(0.75 0.375)" fill="#fff"/>
  <rect id="_Transparent_Rectangle_" data-name="&lt;Transparent Rectangle&gt;" width="38" height="38" fill="none"/>
</svg>
