<svg xmlns="http://www.w3.org/2000/svg" width="28.573" height="28.636" viewBox="0 0 28.573 28.636">
  <path id="food-cooking-svgrepo-com" d="M8.609,29.591a5.694,5.694,0,0,1-3.958-2.477,5.844,5.844,0,0,1-.792-1.9,16.944,16.944,0,0,1-.106-3.244V19.459H3.494a3.024,3.024,0,0,1-1.3-.3,2.207,2.207,0,0,1-1.136-1.785,2.7,2.7,0,0,1,0-.978.757.757,0,0,1,1.367-.112,1.208,1.208,0,0,1,.046.408c0,.6.094.916.326,1.115a.971.971,0,0,0,.679.205h.262l.007-1.772.007-1.772H26.761V18l.106.024a1.476,1.476,0,0,0,.328,0c.689-.05.935-.4.936-1.327,0-.32.037-.459.155-.585a.818.818,0,0,1,1.086,0c.188.189.232.363.207.832a2.513,2.513,0,0,1-.948,2.082,2.632,2.632,0,0,1-1.455.417l-.416.024v2.491a16.237,16.237,0,0,1-.121,3.348,5.707,5.707,0,0,1-1.008,2.211,7.135,7.135,0,0,1-.869.894A5.4,5.4,0,0,1,22.7,29.461c-.717.186-.315.177-7.392.174-5.316,0-6.487,0-6.7-.043ZM3.753,12.5V11.468h9.7l.048-.153a1.839,1.839,0,0,1,.358-.606l.1-.1V9.079h2.6v1.529l.1.1a1.854,1.854,0,0,1,.358.606l.048.153h9.7v2.071H3.753V12.5Zm4.4-2.3a.8.8,0,0,1-.458-.33.759.759,0,0,1,0-.885,1.8,1.8,0,0,0,.254-.826A3.886,3.886,0,0,0,7.37,6.19a4.878,4.878,0,0,1-.588-1.706A3.218,3.218,0,0,1,7.7,2a.782.782,0,0,1,.843-.262.906.906,0,0,1,.492.4.691.691,0,0,1,.017.5,1.137,1.137,0,0,1-.169.24,2.256,2.256,0,0,0-.417.6,1.5,1.5,0,0,0-.156.831,3.862,3.862,0,0,0,.458,1.438,7.88,7.88,0,0,1,.507,1.333A3.267,3.267,0,0,1,9.042,9.53a1.864,1.864,0,0,1-.42.6.634.634,0,0,1-.475.069Zm3.28-.227a1.1,1.1,0,0,1-.45-.412.9.9,0,0,1,0-.674,2.4,2.4,0,0,0,.435-1.531,4.711,4.711,0,0,0-.333-1.735,6.354,6.354,0,0,1-.415-2.072,3.348,3.348,0,0,1,.57-1.95c.306-.469.473-.6.777-.6a.769.769,0,0,1,.564.26.626.626,0,0,1,.194.468c0,.184-.044.29-.248.6a2.38,2.38,0,0,0-.279,2c.031.134.151.543.265.908A5.918,5.918,0,0,1,12.9,7.5a4.078,4.078,0,0,1-.443,1.677c-.222.456-.38.681-.536.763a.647.647,0,0,1-.493.031Z" transform="translate(-1.013 -1)" fill="#fff"/>
</svg>
