<svg xmlns="http://www.w3.org/2000/svg" width="40.402" height="36.362" viewBox="0 0 40.402 36.362">
  <g id="food-toast" transform="translate(-2 -3)">
    <path id="Path_25" data-name="Path 25" d="M9.015,9A1.515,1.515,0,0,0,7.5,10.515v9.091a1.516,1.516,0,0,0,1.515,1.515h9.091a1.515,1.515,0,0,0,1.515-1.515V10.515A1.515,1.515,0,0,0,18.106,9Zm1.515,9.091V12.03h6.06v6.06Z" transform="translate(5.611 6.121)" fill="#fff"/>
    <path id="Path_26" data-name="Path 26" d="M2,12.6A9.6,9.6,0,0,1,11.6,3H32.807a9.6,9.6,0,0,1,7.07,16.082V34.817a4.545,4.545,0,0,1-4.545,4.545H9.07a4.545,4.545,0,0,1-4.545-4.545V19.082A9.565,9.565,0,0,1,2,12.6ZM11.6,6.03A6.565,6.565,0,0,0,7.083,17.363a1.515,1.515,0,0,1,.473,1.1V34.817A1.516,1.516,0,0,0,9.07,36.332h20.2a1.515,1.515,0,0,0,1.515-1.515V19.278a1.515,1.515,0,0,1,.663-1.252,6.565,6.565,0,0,0-3.693-12Z" transform="translate(0 0)" fill="#fff"/>
  </g>
</svg>
