<svg xmlns="http://www.w3.org/2000/svg" width="38" height="38" viewBox="0 0 38 38">
  <g id="health-heart-pulse" transform="translate(-0.498 -0.499)">
    <g id="Frames-24px" transform="translate(0.498 0.499)">
      <rect id="Rectangle_12" data-name="Rectangle 12" width="38" height="38" transform="translate(0 0)" fill="none"/>
    </g>
    <g id="Outline" transform="translate(1.759 3.373)">
      <g id="Group_3" data-name="Group 3">
        <path id="Path_3" data-name="Path 3" d="M15.937,21.983A60.381,60.381,0,0,1,9.785,16H5.557a62.453,62.453,0,0,0,9.4,9.335,1.611,1.611,0,0,0,1.98,0,63.593,63.593,0,0,0,8.056-7.723H20.615C18.733,19.551,16.979,21.1,15.937,21.983Z" transform="translate(1.793 6.576)" fill="#fff"/>
        <path id="Path_4" data-name="Path 4" d="M5.392,13.288a9.143,9.143,0,0,1-.168-1.613,6.044,6.044,0,0,1,6.45-6.45A5.059,5.059,0,0,1,16.169,8.45h3.914a5.059,5.059,0,0,1,4.494-3.225,6.044,6.044,0,0,1,6.45,6.45,10.621,10.621,0,0,1-.564,3.225h3.325a12.92,12.92,0,0,0,.464-3.225A9.257,9.257,0,0,0,24.576,2a8.177,8.177,0,0,0-6.45,3.354A8.183,8.183,0,0,0,11.674,2,9.257,9.257,0,0,0,2,11.675a12.127,12.127,0,0,0,.134,1.613Z" transform="translate(-0.386 -2)" fill="#fff"/>
        <path id="Path_5" data-name="Path 5" d="M31.149,14.142l-4.014,2.675L20.484,8.5,13.9,15.087,9.062,10.249,5.169,14.142H1v3.225H6.5l2.558-2.556L13.9,19.649l6.316-6.318,6.249,7.811,5.662-3.775h4.349V14.142Z" transform="translate(-0.999 1.983)" fill="#fff"/>
      </g>
    </g>
  </g>
</svg>
