<svg xmlns="http://www.w3.org/2000/svg" width="35.857" height="35.857" viewBox="0 0 35.857 35.857">
  <path id="health" d="M12.757,12.757V5.586A3.586,3.586,0,0,1,16.343,2h7.171A3.586,3.586,0,0,1,27.1,5.586v7.171h7.171a3.586,3.586,0,0,1,3.586,3.586v7.171A3.586,3.586,0,0,1,34.271,27.1H27.1v7.171a3.586,3.586,0,0,1-3.586,3.586H16.343a3.586,3.586,0,0,1-3.586-3.586V27.1H5.586A3.586,3.586,0,0,1,2,23.514V16.343a3.586,3.586,0,0,1,3.586-3.586Zm3.586-7.171V14.55a1.793,1.793,0,0,1-1.793,1.793H5.586v7.171H14.55a1.793,1.793,0,0,1,1.793,1.793v8.964h7.171V25.307a1.793,1.793,0,0,1,1.793-1.793h8.964V16.343H25.307a1.793,1.793,0,0,1-1.793-1.793V5.586Z" transform="translate(-2 -2)" fill="#fff" fill-rule="evenodd"/>
</svg>
