<svg xmlns="http://www.w3.org/2000/svg" width="44" height="44" viewBox="0 0 44 44">
  <g id="home" transform="translate(0)">
    <g id="Group_41" data-name="Group 41" transform="translate(11 19.25)">
      <g id="Group_40" data-name="Group 40">
        <path id="Path_27" data-name="Path 27" d="M37.5,80.75h11V67h-11Zm2.75-5.5H43V72.5H40.25V69.75h5.5V78h-5.5Zm0-19.25H32v8.25h8.25ZM37.5,61.5H34.75V58.75H37.5ZM45.75,56v8.25H54V56Zm5.5,5.5H48.5V58.75h2.75Z" transform="translate(-32 -56)" fill="#fff" fill-rule="evenodd"/>
      </g>
    </g>
    <path id="Path_28" data-name="Path 28" d="M43.671,21.122A5.5,5.5,0,0,1,38.5,24.75V38.5A5.5,5.5,0,0,1,33,44H30.25V41.25H33a2.754,2.754,0,0,0,2.75-2.75V22H38.5a2.751,2.751,0,0,0,1.761-4.863l-16.5-13.75a2.751,2.751,0,0,0-3.52,0L17.8,5.42,14.983,7.767,13.519,4.406A2.748,2.748,0,0,0,8.25,5.5v7.878l-.99.824L3.74,17.136A2.751,2.751,0,0,0,5.5,22H8.25V38.5A2.753,2.753,0,0,0,11,41.25h2.75V44H11a5.5,5.5,0,0,1-5.5-5.5V24.75A5.5,5.5,0,0,1,1.98,15.024L5.5,12.09V5.5A5.5,5.5,0,0,1,16.04,3.307l2.44-2.033a5.5,5.5,0,0,1,7.041,0l16.5,13.75A5.5,5.5,0,0,1,43.671,21.122Z" transform="translate(0)" fill="#fff" fill-rule="evenodd"/>
  </g>
</svg>
