<svg xmlns="http://www.w3.org/2000/svg" width="47" height="47.133" viewBox="0 0 47 47.133">
  <g id="Icons" transform="translate(2.5 -0.367)">
    <g id="Rounded" transform="translate(-3)">
      <g id="Hardware">
        <g id="_-Round-_-Hardware-_-security" data-name="-Round-/-Hardware-/-security" transform="translate(0 0)">
          <g id="Group_42" data-name="Group 42">
            <rect id="Rectangle-Copy-126" width="47" height="47" transform="translate(0.5 0.5)" fill="none"/>
            <path id="_-Icon-Color" data-name="🔹-Icon-Color" d="M19.039.525,5.33,6.616A3.933,3.933,0,0,0,3,10.2v9.2c0,10.869,7.52,21.032,17.625,23.5C30.73,40.436,38.25,30.272,38.25,19.4V10.2a3.933,3.933,0,0,0-2.33-3.584L22.211.525A3.893,3.893,0,0,0,19.039.525Zm1.586,20.817H34.333C33.3,29.411,27.91,36.6,20.625,38.85V21.362H6.917V10.2l13.708-6.09Z" transform="translate(2.875 0.18)" fill="#fff" fill-rule="evenodd"/>
          </g>
        </g>
      </g>
    </g>
  </g>
</svg>
