<svg xmlns="http://www.w3.org/2000/svg" width="36" height="36" viewBox="0 0 36 36">
  <g id="Security" transform="translate(-2 -5)">
    <g id="Rounded" transform="translate(2.36 5.36)">
      <g id="Hardware" transform="translate(0 0)">
        <g id="_-Round-_-Hardware-_-security" data-name="-Round-/-Hardware-/-security">
          <g id="Group_51" data-name="Group 51">
            <rect id="Rectangle-Copy-126" width="36" height="36" transform="translate(-0.36 -0.36)" fill="none"/>
            <path id="_-Icon-Color" data-name="🔹-Icon-Color" d="M15.039.441,4.749,5.013A2.953,2.953,0,0,0,3,7.7v6.909C3,22.771,8.645,30.4,16.23,32.252c7.585-1.852,13.23-9.482,13.23-17.64V7.7a2.953,2.953,0,0,0-1.749-2.69L17.421.441A2.922,2.922,0,0,0,15.039.441ZM16.23,16.067H26.52c-.779,6.056-4.822,11.451-10.29,13.142V16.082H5.94V7.7L16.23,3.131Z" transform="translate(1.41 0.088)" fill="#fff" fill-rule="evenodd"/>
          </g>
        </g>
      </g>
    </g>
  </g>
</svg>
