<svg xmlns="http://www.w3.org/2000/svg" width="98.956" height="17.913" viewBox="0 0 98.956 17.913">
  <g id="Title_Underline" data-name="Title Underline" transform="translate(-322.544 -932.544)">
    <line id="Line_2" data-name="Line 2" x2="90" transform="translate(331.5 942.5)" fill="none" stroke="#60af6f" stroke-width="3"/>
    <circle id="Ellipse_1" data-name="Ellipse 1" cx="4" cy="4" r="4" transform="translate(328 938)" fill="#60af6f"/>
    <g id="Path_2" data-name="Path 2" transform="translate(322.544 932.544)" fill="none">
      <path d="M8.956,0A8.956,8.956,0,1,1,0,8.956,8.956,8.956,0,0,1,8.956,0Z" stroke="none"/>
      <path d="M 8.956268310546875 1.999998092651367 C 5.12056827545166 1.999998092651367 1.999998092651367 5.12056827545166 1.999998092651367 8.956268310546875 C 1.999998092651367 12.79196834564209 5.12056827545166 15.91253852844238 8.956268310546875 15.91253852844238 C 12.79196834564209 15.91253852844238 15.91253852844238 12.79196834564209 15.91253852844238 8.956268310546875 C 15.91253852844238 5.12056827545166 12.79196834564209 1.999998092651367 8.956268310546875 1.999998092651367 M 8.956268310546875 -1.9073486328125e-06 C 13.90267848968506 -1.9073486328125e-06 17.91253852844238 4.009858131408691 17.91253852844238 8.956268310546875 C 17.91253852844238 13.90267848968506 13.90267848968506 17.91253852844238 8.956268310546875 17.91253852844238 C 4.009858131408691 17.91253852844238 -1.9073486328125e-06 13.90267848968506 -1.9073486328125e-06 8.956268310546875 C -1.9073486328125e-06 4.009858131408691 4.009858131408691 -1.9073486328125e-06 8.956268310546875 -1.9073486328125e-06 Z" stroke="none" fill="#60af6f"/>
    </g>
  </g>
</svg>
